<mxfile host="app.diagrams.net" modified="2021-08-13T00:59:58.602Z" agent="5.0 (Windows NT 10.0; Win64; x64) AppleWebKit/537.36 (KHTML, like Gecko) Chrome/92.0.4515.131 Safari/537.36" etag="fBbf5b0U1XF8qtz2tsY9" version="14.9.5" type="github">
  <diagram id="gDdyP_mtvxMymuo08mkH" name="Page-1">
    <mxGraphModel dx="868" dy="1651" grid="1" gridSize="10" guides="1" tooltips="1" connect="1" arrows="1" fold="1" page="1" pageScale="1" pageWidth="827" pageHeight="1169" math="0" shadow="0">
      <root>
        <mxCell id="0" />
        <mxCell id="1" parent="0" />
        <mxCell id="KaeWl1IXVM2V3l_bLDVt-12" value="" style="edgeStyle=orthogonalEdgeStyle;rounded=0;orthogonalLoop=1;jettySize=auto;html=1;" edge="1" parent="1" source="KaeWl1IXVM2V3l_bLDVt-1" target="KaeWl1IXVM2V3l_bLDVt-6">
          <mxGeometry relative="1" as="geometry" />
        </mxCell>
        <mxCell id="KaeWl1IXVM2V3l_bLDVt-1" value="Clientes" style="rounded=0;whiteSpace=wrap;html=1;" vertex="1" parent="1">
          <mxGeometry x="60" y="90" width="110" height="60" as="geometry" />
        </mxCell>
        <mxCell id="KaeWl1IXVM2V3l_bLDVt-14" value="" style="edgeStyle=orthogonalEdgeStyle;rounded=0;orthogonalLoop=1;jettySize=auto;html=1;" edge="1" parent="1" source="KaeWl1IXVM2V3l_bLDVt-2" target="KaeWl1IXVM2V3l_bLDVt-13">
          <mxGeometry relative="1" as="geometry" />
        </mxCell>
        <mxCell id="KaeWl1IXVM2V3l_bLDVt-2" value="SesiÃ³n" style="rounded=0;whiteSpace=wrap;html=1;" vertex="1" parent="1">
          <mxGeometry x="490" y="90" width="120" height="60" as="geometry" />
        </mxCell>
        <mxCell id="KaeWl1IXVM2V3l_bLDVt-3" value="" style="endArrow=none;html=1;entryX=0;entryY=0.5;entryDx=0;entryDy=0;startArrow=none;exitX=1;exitY=0.5;exitDx=0;exitDy=0;" edge="1" parent="1" source="KaeWl1IXVM2V3l_bLDVt-4" target="KaeWl1IXVM2V3l_bLDVt-2">
          <mxGeometry width="50" height="50" relative="1" as="geometry">
            <mxPoint x="310" y="70" as="sourcePoint" />
            <mxPoint x="440" y="230" as="targetPoint" />
            <Array as="points" />
          </mxGeometry>
        </mxCell>
        <mxCell id="KaeWl1IXVM2V3l_bLDVt-11" value="" style="edgeStyle=orthogonalEdgeStyle;rounded=0;orthogonalLoop=1;jettySize=auto;html=1;" edge="1" parent="1" source="KaeWl1IXVM2V3l_bLDVt-4" target="KaeWl1IXVM2V3l_bLDVt-10">
          <mxGeometry relative="1" as="geometry" />
        </mxCell>
        <mxCell id="KaeWl1IXVM2V3l_bLDVt-4" value="&lt;p style=&quot;line-height: 100%&quot;&gt;Realiza&lt;/p&gt;" style="rhombus;whiteSpace=wrap;html=1;" vertex="1" parent="1">
          <mxGeometry x="280" y="80" width="100" height="80" as="geometry" />
        </mxCell>
        <mxCell id="KaeWl1IXVM2V3l_bLDVt-5" value="" style="endArrow=none;html=1;exitX=1;exitY=0.5;exitDx=0;exitDy=0;entryX=0;entryY=0.5;entryDx=0;entryDy=0;" edge="1" parent="1" source="KaeWl1IXVM2V3l_bLDVt-1" target="KaeWl1IXVM2V3l_bLDVt-4">
          <mxGeometry width="50" height="50" relative="1" as="geometry">
            <mxPoint x="170" y="120" as="sourcePoint" />
            <mxPoint x="430" y="120" as="targetPoint" />
            <Array as="points" />
          </mxGeometry>
        </mxCell>
        <mxCell id="KaeWl1IXVM2V3l_bLDVt-6" value="&lt;div&gt;&lt;span&gt;-Nombre y Apellido&lt;/span&gt;&lt;/div&gt;&lt;div&gt;&lt;span&gt;-Edad&lt;/span&gt;&lt;/div&gt;&lt;div&gt;&lt;span&gt;-Medio de Pago&lt;/span&gt;&lt;/div&gt;" style="ellipse;whiteSpace=wrap;html=1;align=center;" vertex="1" parent="1">
          <mxGeometry x="42.5" y="230" width="145" height="70" as="geometry" />
        </mxCell>
        <mxCell id="KaeWl1IXVM2V3l_bLDVt-8" value="&lt;span style=&quot;font-family: &amp;#34;helvetica&amp;#34;&quot;&gt;Profe/GYM&lt;/span&gt;" style="rounded=0;whiteSpace=wrap;html=1;" vertex="1" parent="1">
          <mxGeometry x="490" y="-160" width="120" height="60" as="geometry" />
        </mxCell>
        <mxCell id="KaeWl1IXVM2V3l_bLDVt-9" value="" style="endArrow=none;html=1;entryX=0.5;entryY=1;entryDx=0;entryDy=0;exitX=0.5;exitY=0;exitDx=0;exitDy=0;" edge="1" parent="1" source="KaeWl1IXVM2V3l_bLDVt-2" target="KaeWl1IXVM2V3l_bLDVt-8">
          <mxGeometry width="50" height="50" relative="1" as="geometry">
            <mxPoint x="400" y="120" as="sourcePoint" />
            <mxPoint x="440" y="150" as="targetPoint" />
          </mxGeometry>
        </mxCell>
        <mxCell id="KaeWl1IXVM2V3l_bLDVt-10" value="-Ejercicios" style="ellipse;whiteSpace=wrap;html=1;" vertex="1" parent="1">
          <mxGeometry x="270" y="245" width="120" height="60" as="geometry" />
        </mxCell>
        <mxCell id="KaeWl1IXVM2V3l_bLDVt-13" value="-Seguimiento de rutina&lt;br&gt;-Objetivo de Entrenamiento" style="ellipse;whiteSpace=wrap;html=1;rounded=0;" vertex="1" parent="1">
          <mxGeometry x="480" y="230" width="140" height="70" as="geometry" />
        </mxCell>
        <mxCell id="KaeWl1IXVM2V3l_bLDVt-15" value="Actualiza" style="rhombus;whiteSpace=wrap;html=1;" vertex="1" parent="1">
          <mxGeometry x="510" y="-50" width="80" height="80" as="geometry" />
        </mxCell>
        <mxCell id="KaeWl1IXVM2V3l_bLDVt-16" value="n" style="text;html=1;strokeColor=none;fillColor=none;align=center;verticalAlign=middle;whiteSpace=wrap;rounded=0;" vertex="1" parent="1">
          <mxGeometry x="540" y="70" width="40" height="20" as="geometry" />
        </mxCell>
        <mxCell id="KaeWl1IXVM2V3l_bLDVt-17" value="1" style="text;html=1;strokeColor=none;fillColor=none;align=center;verticalAlign=middle;whiteSpace=wrap;rounded=0;" vertex="1" parent="1">
          <mxGeometry x="540" y="-100" width="40" height="20" as="geometry" />
        </mxCell>
        <mxCell id="KaeWl1IXVM2V3l_bLDVt-19" value="n" style="text;html=1;strokeColor=none;fillColor=none;align=center;verticalAlign=middle;whiteSpace=wrap;rounded=0;" vertex="1" parent="1">
          <mxGeometry x="460" y="120" width="40" height="20" as="geometry" />
        </mxCell>
        <mxCell id="KaeWl1IXVM2V3l_bLDVt-20" value="1" style="text;html=1;strokeColor=none;fillColor=none;align=center;verticalAlign=middle;whiteSpace=wrap;rounded=0;" vertex="1" parent="1">
          <mxGeometry x="160" y="120" width="40" height="20" as="geometry" />
        </mxCell>
        <mxCell id="KaeWl1IXVM2V3l_bLDVt-21" value="" style="ellipse;whiteSpace=wrap;html=1;" vertex="1" parent="1">
          <mxGeometry x="650" y="-40" width="120" height="60" as="geometry" />
        </mxCell>
        <mxCell id="KaeWl1IXVM2V3l_bLDVt-23" value="" style="rounded=0;whiteSpace=wrap;html=1;" vertex="1" parent="1">
          <mxGeometry x="120" y="-160" width="120" height="60" as="geometry" />
        </mxCell>
        <mxCell id="KaeWl1IXVM2V3l_bLDVt-24" value="Actualiza" style="rhombus;whiteSpace=wrap;html=1;rounded=0;" vertex="1" parent="1">
          <mxGeometry x="334" y="-170" width="80" height="80" as="geometry" />
        </mxCell>
        <mxCell id="KaeWl1IXVM2V3l_bLDVt-27" value="" style="endArrow=none;html=1;exitX=1;exitY=0.5;exitDx=0;exitDy=0;entryX=0;entryY=0.5;entryDx=0;entryDy=0;" edge="1" parent="1" source="KaeWl1IXVM2V3l_bLDVt-23" target="KaeWl1IXVM2V3l_bLDVt-24">
          <mxGeometry width="50" height="50" relative="1" as="geometry">
            <mxPoint x="390" y="40" as="sourcePoint" />
            <mxPoint x="330" y="-130" as="targetPoint" />
          </mxGeometry>
        </mxCell>
        <mxCell id="KaeWl1IXVM2V3l_bLDVt-28" value="" style="endArrow=none;html=1;entryX=1;entryY=0.5;entryDx=0;entryDy=0;exitX=0;exitY=0.5;exitDx=0;exitDy=0;" edge="1" parent="1" source="KaeWl1IXVM2V3l_bLDVt-8" target="KaeWl1IXVM2V3l_bLDVt-24">
          <mxGeometry width="50" height="50" relative="1" as="geometry">
            <mxPoint x="390" y="40" as="sourcePoint" />
            <mxPoint x="440" y="-10" as="targetPoint" />
          </mxGeometry>
        </mxCell>
        <mxCell id="KaeWl1IXVM2V3l_bLDVt-29" value="1" style="text;html=1;strokeColor=none;fillColor=none;align=center;verticalAlign=middle;whiteSpace=wrap;rounded=0;" vertex="1" parent="1">
          <mxGeometry x="230" y="-150" width="40" height="20" as="geometry" />
        </mxCell>
        <mxCell id="KaeWl1IXVM2V3l_bLDVt-30" value="1" style="text;html=1;strokeColor=none;fillColor=none;align=center;verticalAlign=middle;whiteSpace=wrap;rounded=0;" vertex="1" parent="1">
          <mxGeometry x="460" y="-150" width="40" height="20" as="geometry" />
        </mxCell>
        <mxCell id="KaeWl1IXVM2V3l_bLDVt-31" value="" style="endArrow=none;html=1;entryX=0;entryY=0.5;entryDx=0;entryDy=0;exitX=1;exitY=0.5;exitDx=0;exitDy=0;" edge="1" parent="1" source="KaeWl1IXVM2V3l_bLDVt-15" target="KaeWl1IXVM2V3l_bLDVt-21">
          <mxGeometry width="50" height="50" relative="1" as="geometry">
            <mxPoint x="390" y="30" as="sourcePoint" />
            <mxPoint x="440" y="-20" as="targetPoint" />
          </mxGeometry>
        </mxCell>
      </root>
    </mxGraphModel>
  </diagram>
</mxfile>
